<svg xmlns="http://www.w3.org/2000/svg" width="10in" height="10in" viewBox="0 0 720 720"><title>walrio</title><path d="M234.2339,353.3847S220.5164,211.02,350.8332,198.9546c0,0,145.0141-22.521,143.0545,151.2128,0,0,97.0027,61.9329,0,145.5826,0,0-131.2966,86.0626-259.6538,0S350.8332,252.04,350.8332,252.04" fill="#8c6239" stroke="#000" stroke-miterlimit="10" stroke-width="4"/><path d="M247,501.382s229.3193,13.7706,270.8369-126.0661c0,0,54.0031,56.4016-29.575,121.0184,0,0-71.5259,49.0093-178.9919,30.4818C309.27,526.8161,264.074,516.0585,247,501.382Z" fill="#a67c52"/><path d="M325,250.1707l51-3.5258-20,71.398L239,377.1006s-5-19.3921,0-36.14S325,250.1707,325,250.1707Z" fill="#8c6239"/><rect x="298" y="302" width="14" height="25" fill="#1b1464"/><path d="M229.6374,267.0891s-7.6251,84.7234,77.0983,61.8481l-.8472-61.8481v-9.32h-94.043S205.0676,273.02,229.6374,267.0891Z" fill="#1b1464"/><path d="M306.7357,328.9372S333,317.9232,333,295.0478V257.77H305.8885Z" fill="#1b1464"/><rect x="396" y="299" width="18" height="30" fill="#1b1464"/><path d="M482.3512,267.0891s7.6251,84.7234-77.0983,61.8481l.8472-61.8481v-9.32h94.043S506.921,273.02,482.3512,267.0891Z" fill="#1b1464"/><path d="M405.2529,328.9372s-26.2643-11.014-26.2643-33.8894V257.77H406.1Z" fill="#1b1464"/><rect x="292" y="263" width="25" height="47" fill="#1b1464"/><rect x="400.9784" y="265" width="24.9984" height="47" fill="#1b1464"/><rect x="258.5" y="244.5" width="8" height="53" transform="translate(-8.5 533.5) rotate(-90)" fill="#fff"/><rect x="265" y="267" width="6" height="34" transform="translate(-16 552) rotate(-90)" fill="#fff"/><rect x="411.5" y="244.5" width="8" height="53" transform="translate(144.5 686.5) rotate(-90)" fill="#fff"/><rect x="419" y="267" width="6" height="34" transform="translate(138 706) rotate(-90)" fill="#fff"/><path d="M450.2622,413.8543q-1.3157,3.0814-2.5815,6.1828a4.4111,4.4111,0,0,1,1.3849-.2642q1.1877-3.4423,2.4344-6.8593V412.5h-.8541A5.5645,5.5645,0,0,1,450.2622,413.8543Z" stroke="#000" stroke-miterlimit="10" stroke-width="3"/><path d="M440.065,412.5H275.5v23.1168a5.0052,5.0052,0,0,1,2.5853.2794,6.0013,6.0013,0,0,1,2.7336-.2561c.11-.9286.262-1.8627.462-2.804.862-4.0559,7.3287-5.0483,9.1388-1.1944a32.3331,32.3331,0,0,1,2.89,9.4761,5.1847,5.1847,0,0,1,3.8545,4.0362,4.8719,4.8719,0,0,1,.3325,1.346h130.9a4.7257,4.7257,0,0,1,.1281-1.8528A260.4115,260.4115,0,0,1,440.065,412.5Z" stroke="#000" stroke-miterlimit="10" stroke-width="3"/><ellipse cx="357.5" cy="333" rx="51.5" ry="33" fill="#534741" stroke="#000" stroke-miterlimit="10" stroke-width="4"/><path d="M275.1747,555.7924a36.7491,36.7491,0,0,1,15.18-10.7422,6.1576,6.1576,0,0,1,1.5519-.37c.9234-1.3817,1.915-2.7363,2.9535-4.0662a5.0589,5.0589,0,0,1,2.7887-1.796c.015-.015.0314-.0272.0466-.042L320,428.7714H300.4843L273,557h1.52A3.2212,3.2212,0,0,1,275.1747,555.7924Z" stroke="#000" stroke-miterlimit="10"/><ellipse cx="270.5" cy="535.7976" rx="27" ry="24.7024" stroke="#000" stroke-miterlimit="10"/><path d="M393.1747,559.7569a36.7872,36.7872,0,0,1,15.18-11.0582,6.01,6.01,0,0,1,1.5519-.38c.9234-1.4224,1.915-2.8168,2.9535-4.1859a5.0457,5.0457,0,0,1,2.7887-1.8487c.015-.0154.0314-.0281.0466-.0433L438,429H418.4843L391,561h1.52A3.3475,3.3475,0,0,1,393.1747,559.7569Z" stroke="#000" stroke-miterlimit="10"/><circle cx="302" cy="387" r="59.5" fill="#c69c6d" stroke="#000" stroke-miterlimit="10" stroke-width="4"/><path d="M335.15,433.713c.0964-.033.19-.0748.2853-.1105,1.6687-.96,3.169-1.8895,4.4794-2.7434,2.2842-1.91,4.3214-4.2934,6.2894-6.2376.702-.6936,1.3675-1.41,2.0177-2.1353,20.8281-39.2855.4089-67.72-4.757-73.9424q-.375.0825-.7482.1747c-.0354.8678-.0714,1.7489-.1093,2.67C339.8754,417.9432,257.633,423.28,257.633,423.28c26.34,31.1993,58.3648,20.8919,75.7045,11.494A4.9932,4.9932,0,0,1,335.15,433.713Z" fill="#998675"/><path d="M291,443s24.1341,6.8814,45.5671-10.0593C336.5671,432.9407,350,425,355,410c0,0-12-29-1-50,0,0-11-14-12-14,0,0,1,3,3,12,0,0-5,48-17,57Z" fill="#998675"/><circle cx="409" cy="387" r="59.5" fill="#c69c6d" stroke="#000" stroke-miterlimit="10" stroke-width="4"/><path d="M320.5,319.0083s14.9119-.9162,27.587,16.4917" fill="none" stroke="#000" stroke-miterlimit="10" stroke-width="4"/><path d="M391,319.0083s-14.9119-.9162-27.587,16.4917" fill="none" stroke="#000" stroke-miterlimit="10" stroke-width="4"/><path d="M282.0239,364.4983s-58.68-51.8527-104.6267-33.6082" fill="none" stroke="#000" stroke-miterlimit="10" stroke-width="3"/><path d="M273.7089,380.5234S214.715,350.4889,176,384.37" fill="none" stroke="#000" stroke-miterlimit="10" stroke-width="3"/><path d="M274.7659,397.2275s-59.0789-7.3605-90.3592,39.6751" fill="none" stroke="#000" stroke-miterlimit="10" stroke-width="3"/><circle cx="398.5" cy="366.5" r="1.5" stroke="#000" stroke-miterlimit="10" stroke-width="2"/><circle cx="381.5" cy="391.5" r="1.5" stroke="#000" stroke-miterlimit="10" stroke-width="2"/><circle cx="407.5" cy="401.5" r="1.5" stroke="#000" stroke-miterlimit="10" stroke-width="2"/><circle cx="294.5" cy="372.5" r="1.5" stroke="#000" stroke-miterlimit="10" stroke-width="2"/><circle cx="311.5" cy="397.5" r="1.5" stroke="#000" stroke-miterlimit="10" stroke-width="2"/><path d="M439.8711,434.7062c.4133-.2416.8344-.4736,1.256-.7051,2.6759-1.61,5.12-3.2764,7.2912-4.8868a5.0344,5.0344,0,0,1,1.652-1.31c.05-.0254.0976-.0539.1459-.0819a69.6033,69.6033,0,0,0,12.1943-15.6806c13.0173-40.1224-10.485-64.205-16.3977-69.4689q-.3616.1362-.72.2815c.09.8613.1821,1.7357.278,2.65,6.9223,66.0537-74.24,83.315-74.24,83.315,25.6866,22.4909,51.1262,15.8548,68.0873,6.183C439.56,434.9,439.71,434.8007,439.8711,434.7062Z" fill="#998675"/><circle cx="285.5" cy="407.5" r="1.5" stroke="#000" stroke-miterlimit="10" stroke-width="2"/><path d="M445.0321,226.5783s-38.5477-41.1491-119.9534-20.5111C325.0787,206.0672,365.9945,236.5083,445.0321,226.5783Z" fill="#a67c52"/><path d="M236,346v10c0,5,8,0,8,0V344Z" fill="#8c6239"/><path d="M298,539s-2,23-27,22C271,561,285,533,298,539Z"/><path d="M416.531,540.4263s-1.0072,23.033-26.027,23.1139C390.504,563.54,403.2846,535.001,416.531,540.4263Z"/><rect x="399" y="259" width="15" height="7" fill="#1b1464"/><rect x="300" y="258" width="13" height="6" fill="#1b1464"/><polygon points="333 258 379 258 379 265.793 333 266 333 258" fill="#1b1464" stroke="#1b1464" stroke-miterlimit="10" stroke-width="0.46"/><polygon points="333 263.314 379 263.314 379 274.698 333 275 333 263.314" fill="#1b1464" stroke="#1b1464" stroke-miterlimit="10" stroke-width="0.46"/><path d="M314,526s24.2609,9.7826,66.13,4.3913L380,520Z" fill="#a67c52"/><ellipse cx="389" cy="539.7976" rx="26.5" ry="24.7024" stroke="#000" stroke-miterlimit="10"/><path d="M481.7958,500.2609s17.3585-6.8384,33.2814-29.55C515.0772,470.7112,477.5915,491.5217,481.7958,500.2609Z" fill="#a67c52"/><path d="M417,444s-28,5-47-15l1.91-.3126" fill="#998675"/><path d="M415.5429,444.2013s18.8471-.7,37.1521-18.9509L413,439Z" fill="#998675"/><path d="M466.1443,393.0513A53.567,53.567,0,0,0,461,362s-6.3289-11.639-9.1644-13.32C451.8356,348.6805,449.2887,395.1025,466.1443,393.0513Z" fill="#998675"/><path d="M428.46,379.9065s56.4767-32.4941,93.54,4.1616" fill="none" stroke="#000" stroke-miterlimit="10" stroke-width="3"/><path d="M420.5,363.5691s56.1758-56.099,100.1624-36.36" fill="none" stroke="#000" stroke-miterlimit="10" stroke-width="3"/><path d="M427.4483,390.9785s56.5581-7.9633,86.5037,42.9241" fill="none" stroke="#000" stroke-miterlimit="10" stroke-width="3"/></svg>